<svg width="64" height="64" viewBox="0 0 64 64" fill="none" xmlns="http://www.w3.org/2000/svg">
<g clip-path="url(#clip0_1151_44)">
<path d="M0 0H64V64H0V0Z" fill="#44475A"/>
<path d="M30.5312 16.3234C31.4625 15.8922 32.5375 15.8922 33.4688 16.3234L47.1312 22.6359C47.6625 22.8797 48 23.4109 48 23.9984C48 24.5859 47.6625 25.1172 47.1312 25.3609L33.4688 31.6734C32.5375 32.1047 31.4625 32.1047 30.5312 31.6734L16.8688 25.3609C16.3375 25.1109 16 24.5797 16 23.9984C16 23.4172 16.3375 22.8797 16.8688 22.6359L30.5312 16.3234ZM43.8062 29.0984L47.1312 30.6359C47.6625 30.8797 48 31.4109 48 31.9984C48 32.5859 47.6625 33.1172 47.1312 33.3609L33.4688 39.6734C32.5375 40.1047 31.4625 40.1047 30.5312 39.6734L16.8688 33.3609C16.3375 33.1109 16 32.5797 16 31.9984C16 31.4172 16.3375 30.8797 16.8688 30.6359L20.1937 29.0984L29.6938 33.4859C31.1563 34.1609 32.8437 34.1609 34.3062 33.4859L43.8062 29.0984Z" fill="#F8F8F2"/>
<path d="M34.3062 41.4859L43.8062 37.0984L47.1312 38.636C47.6625 38.8797 48 39.4109 48 39.9984C48 40.5859 47.6625 41.1172 47.1312 41.3609L33.4688 47.6734C32.5375 48.1047 31.4625 48.1047 30.5312 47.6734L16.8688 41.3609C16.3375 41.1109 16 40.5797 16 39.9984C16 39.4172 16.3375 38.8797 16.8688 38.636L20.1937 37.0984L29.6938 41.4859C31.1563 42.1609 32.8437 42.1609 34.3062 41.4859Z" fill="#6272A4"/>
</g>
<defs>
<clipPath id="clip0_1151_44">
<rect width="64" height="64" fill="white"/>
</clipPath>
</defs>
</svg>
