<svg xmlns="http://www.w3.org/2000/svg" viewBox="0 0 64 64">
  <path fill="currentColor" d="M32 10C19.9 10 10 19.9 10 32s9.9 22 22 22 22-9.9 22-22S44.1 10 32 10zm0 4c2.1 0 4.7 2.9 6.5 8H25.5c1.8-5.1 4.4-8 6.5-8zM14 32c0-1.4.2-2.8.5-4.1L22 30v1.5c0 2.3.3 4.5.7 6.5H14.8A18 18 0 0 1 14 32zm4.8 10h5.8c.9 2.7 2.1 5 3.6 6.7A18.1 18.1 0 0 1 18.8 42zm22.4 0h5.8a18.1 18.1 0 0 1-9.4 6.7c1.5-1.7 2.7-4 3.6-6.7zM50 32c0 1.4-.2 2.8-.5 4H42.3c.4-2 .7-4.2.7-6.5V28l7.5-2.1c.3 1.3.5 2.7.5 4.1z"/>
  <path fill="var(--icon-color-accent, #ff8700)" d="M20 18h24v4H32l-2 4h10l-4 8h4l4-8 4 8h4L42 18h-4l-4 8h-6l2-4h-4l-4-4h-2z" style="display:none"/>
  <path fill="var(--icon-color-accent, #ff8700)" d="M22 20h10v3h-4l4 8h-3l-1-3h-6l-1 3h-3l4-8V20zm2 6h4l-2-5-2 5z"/>
</svg>
